# xmcd
#
# Track frame offsets:
#	150
#	10605
#	25005
#	36142
#	50715
#	64307
#	81493
#	89018
#	104150
#	115800
#	125443
#	136280
#	146483
#	158088
#
# Disc length: 2291
#
# Revision: 1
# Processed by: cddbd v1.5.1PL0 Copyright (c) Steve Scherf et al.
# Submitted via: dBpowerAMP V4.0
# Normalized: r0:TDELIM( - )
#
DISCID=c308f10e
DTITLE=Various Artist - Country Ballads CD2
DYEAR=1900
DGENRE=Country
TTITLE0=Dolly Parton - Release me
TTITLE1=Lynn Anderson - Cry
TTITLE2=Billie Jo Spears - All I have to do is dream
TTITLE3=Skeeter Davis - Hopelessly devoted to you
TTITLE4=Willie Nelson - The last letter
TTITLE5=Bobby Bare - Sylvia's mother
TTITLE6=Buck Owens - Please don't take her from me
TTITLE7=The Kingston Trio - Tom Dooly
TTITLE8=Gene Autry - Vaya con dios
TTITLE9=Ned Miller - From a jack to a king
TTITLE10=Patsy Cline - I cried all the way to the altar
TTITLE11=Dave Duddley - Seven lonely days
TTITLE12=Kenny Rogers - Poem for a  little lady
TTITLE13=B.J. Thomas - I'm so lonesome I could cry
EXTD=K-box 217\tbar code 8 712155023873
EXTT0=
EXTT1=
EXTT2=
EXTT3=
EXTT4=
EXTT5=
EXTT6=
EXTT7=
EXTT8=
EXTT9=
EXTT10=
EXTT11=
EXTT12=
EXTT13=
PLAYORDER=
